<svg version="1.1" id="Layer_1" xmlns="http://www.w3.org/2000/svg" xmlns:xlink="http://www.w3.org/1999/xlink" x="0px" y="0px"
	 width="100%" viewBox="0 0 200 200" enable-background="new 0 0 200 200" xml:space="preserve">
<path fill="#FCFEFE" opacity="1.000000" stroke="none" 
	d="
M74.000000,201.000000 
	C49.737843,201.000000 25.475683,201.000000 1.000000,201.000000 
	C1.000000,175.646179 1.000000,150.291748 1.248420,124.472382 
	C1.496839,124.007439 1.989618,124.072723 1.989618,124.072723 
	C1.989618,124.072723 2.484928,124.030731 2.546566,124.399231 
	C2.642821,125.511757 2.677439,126.255775 2.526509,127.168114 
	C2.519520,127.892952 2.698080,128.449463 2.964894,129.399292 
	C4.837804,139.865173 7.463215,149.613663 13.643864,159.117081 
	C15.217053,156.897552 16.210644,155.629929 17.061565,154.272842 
	C21.659386,146.940033 26.432745,139.703949 30.679037,132.171509 
	C32.112839,129.628113 32.946632,126.263321 32.753437,123.360527 
	C30.794710,93.930466 50.870594,70.598717 80.424065,68.284004 
	C92.267143,71.679634 100.557030,64.527031 109.267784,58.589779 
	C112.568642,56.339920 115.948082,54.205097 119.240677,51.943542 
	C120.259583,51.243694 121.110115,50.298683 122.059410,49.446465 
	C121.524437,48.671467 121.333199,48.145046 120.958115,47.899677 
	C119.989937,47.266338 118.967445,46.699982 117.919579,46.206894 
	C96.951881,36.340321 75.501488,35.342197 53.960651,43.732506 
	C28.690403,53.575447 12.732440,72.192757 4.736452,98.061447 
	C4.505911,98.238205 4.359653,98.365166 4.383362,98.428375 
	C4.461047,98.635483 4.600529,98.819420 4.698763,99.350876 
	C4.496524,100.098450 4.311780,100.507408 3.861153,101.104233 
	C3.318156,104.192848 3.041041,107.093597 2.793486,110.393341 
	C2.709991,111.851906 2.596937,112.911491 2.236413,113.950142 
	C1.661986,113.990387 1.332337,114.013985 1.000000,114.000000 
	C1.000000,76.359848 1.000000,38.719692 1.000000,1.039769 
	C67.593208,1.039769 134.186447,1.039769 200.889847,1.039769 
	C200.889847,67.546143 200.889847,134.092529 200.889847,201.000000 
	C164.979904,201.000000 128.958618,201.000000 92.465195,200.687592 
	C91.998230,199.958679 92.003380,199.542160 92.340622,199.064850 
	C93.119682,199.039978 93.566666,199.075912 94.277184,199.364075 
	C97.692047,198.793365 100.843376,197.970444 104.237000,197.038757 
	C104.827812,196.889053 105.176323,196.848099 105.929520,196.871384 
	C107.890556,196.289688 109.446922,195.643723 111.110672,194.886017 
	C111.218063,194.774261 111.526299,194.807022 111.814331,194.816406 
	C112.399712,194.601349 112.697075,194.376877 113.300278,193.967224 
	C116.390724,192.515381 119.175331,191.248764 122.271866,189.982422 
	C123.040718,189.618210 123.497627,189.253708 123.963730,188.933807 
	C123.972931,188.978394 123.901970,188.921326 124.226532,188.932983 
	C124.981163,188.537308 125.411224,188.129974 125.856018,187.779037 
	C125.870750,187.835434 125.759232,187.801437 126.026970,187.781769 
	C126.528000,187.504395 126.761292,187.246704 127.080902,186.876740 
	C127.167221,186.764465 127.450340,186.772125 127.771759,186.752350 
	C128.355423,186.415771 128.617661,186.098984 128.886200,185.833359 
	C128.892471,185.884537 128.795486,185.849472 129.058868,185.810028 
	C129.544815,185.506134 129.767365,185.241684 129.993652,184.989822 
	C129.997391,185.002411 129.976654,184.984268 130.298141,184.975220 
	C130.996353,184.526230 131.373062,184.086288 131.781250,183.700317 
	C131.812714,183.754288 131.690536,183.728210 131.977692,183.708862 
	C132.481674,183.391846 132.698502,183.094162 133.084930,182.514099 
	C171.018707,152.025467 169.183090,101.482155 152.099106,79.329048 
	C147.847961,86.021919 143.840302,92.714951 139.444122,99.142242 
	C135.246811,105.278809 131.395660,111.312500 133.713760,119.288635 
	C134.108261,120.646004 133.718430,122.268936 133.537277,123.750397 
	C130.343048,149.872650 110.842819,168.892349 84.457687,169.174149 
	C75.140556,169.273636 68.327919,172.441238 61.213451,176.945633 
	C56.577362,179.880875 51.841110,182.657471 47.174267,185.544830 
	C45.834225,186.373901 44.579590,187.341003 42.897228,188.516281 
	C52.738911,195.107330 63.580658,197.043625 73.998398,200.339386 
	C74.003365,200.559555 74.000000,201.000000 74.000000,201.000000 
M139.334641,71.853020 
	C141.749619,67.867653 144.339539,63.973751 146.494385,59.852375 
	C147.368912,58.179741 147.296188,56.011833 147.654480,54.069290 
	C145.750839,54.464397 143.548874,54.372181 141.988266,55.327599 
	C118.002045,70.012138 94.061523,84.772736 70.229156,99.705208 
	C67.509514,101.409233 64.934990,103.902962 63.257549,106.624847 
	C48.502125,130.567673 33.934132,154.626511 19.443850,178.731049 
	C18.598413,180.137421 18.905947,182.236908 18.676924,184.013840 
	C20.294514,183.615036 22.133919,183.584259 23.496748,182.762787 
	C47.870911,168.071136 72.228035,153.349747 96.459129,138.424210 
	C99.161102,136.759888 101.598579,134.139313 103.272453,131.417206 
	C115.302597,111.853455 127.103676,92.148857 139.334641,71.853020 
M170.101013,52.296024 
	C170.622772,53.715961 171.144547,55.135899 172.126251,57.807526 
	C174.161224,51.291786 175.978470,46.288555 177.241806,41.149166 
	C178.123245,37.563313 180.229736,35.981499 183.554199,35.065342 
	C188.541718,33.690872 193.441727,31.998857 199.699356,30.025476 
	C194.797745,28.369535 191.444382,26.736292 187.917038,26.150146 
	C180.785355,24.965067 176.950211,21.141640 175.803879,14.005687 
	C175.293091,10.826061 173.737961,7.814200 172.656830,4.726196 
	C172.119263,4.812985 171.581680,4.899773 171.044113,4.986561 
	C169.662796,9.380196 168.087372,13.724792 166.961227,18.182882 
	C166.050232,21.789219 164.206268,23.809057 160.492294,24.744539 
	C155.550125,25.989382 150.762436,27.847445 145.908371,29.442072 
	C147.608612,31.001886 148.975784,31.762331 150.411621,31.928095 
	C162.174042,33.286034 168.664291,39.795303 170.101013,52.296024 
z"/>
<path fill="#DFF5F7" opacity="1.000000" stroke="none" 
	d="
M92.008537,199.125641 
	C92.003380,199.542160 91.998230,199.958679 91.996536,200.687592 
	C86.311958,201.000000 80.623917,201.000000 74.467941,201.000000 
	C74.000000,201.000000 74.003365,200.559555 74.412949,200.261261 
	C80.551208,199.683868 86.279869,199.404739 92.008537,199.125641 
z"/>
<path fill="#D1EDF0" opacity="1.000000" stroke="none" 
	d="
M2.484928,124.030731 
	C2.484928,124.030731 1.989618,124.072723 1.989618,124.072723 
	C1.989618,124.072723 1.496839,124.007439 1.248420,124.003723 
	C1.000000,120.969406 1.000000,117.938812 1.000000,114.454109 
	C1.332337,114.013985 1.661986,113.990387 2.304704,114.402130 
	C2.575285,117.926941 2.530107,120.978836 2.484928,124.030731 
z"/>
<path fill="#177C8E" opacity="1.000000" stroke="none" 
	d="
M2.546566,124.399231 
	C2.530107,120.978836 2.575285,117.926941 2.552173,114.423058 
	C2.596937,112.911491 2.709991,111.851906 2.917103,110.017227 
	C3.383120,106.466866 3.755078,103.691620 4.127036,100.916367 
	C4.311780,100.507408 4.496524,100.098450 4.831952,99.108902 
	C4.954615,98.346359 4.926595,98.164413 4.898576,97.982460 
	C12.732440,72.192757 28.690403,53.575447 53.960651,43.732506 
	C75.501488,35.342197 96.951881,36.340321 117.919579,46.206894 
	C118.967445,46.699982 119.989937,47.266338 120.958115,47.899677 
	C121.333199,48.145046 121.524437,48.671467 122.059410,49.446465 
	C121.110115,50.298683 120.259583,51.243694 119.240677,51.943542 
	C115.948082,54.205097 112.568642,56.339920 109.267784,58.589779 
	C100.557030,64.527031 92.267143,71.679634 80.424065,68.284004 
	C50.870594,70.598717 30.794710,93.930466 32.753437,123.360527 
	C32.946632,126.263321 32.112839,129.628113 30.679037,132.171509 
	C26.432745,139.703949 21.659386,146.940033 17.061565,154.272842 
	C16.210644,155.629929 15.217053,156.897552 13.643864,159.117081 
	C7.463215,149.613663 4.837804,139.865173 3.032078,129.060883 
	C2.911357,127.886040 2.811707,127.442917 2.712056,126.999794 
	C2.677439,126.255775 2.642821,125.511757 2.546566,124.399231 
z"/>
<path fill="#177D8E" opacity="1.000000" stroke="none" 
	d="
M92.340622,199.064835 
	C86.279869,199.404739 80.551208,199.683868 74.407990,200.041092 
	C63.580658,197.043625 52.738911,195.107330 42.897228,188.516281 
	C44.579590,187.341003 45.834225,186.373901 47.174267,185.544830 
	C51.841110,182.657471 56.577362,179.880875 61.213451,176.945633 
	C68.327919,172.441238 75.140556,169.273636 84.457687,169.174149 
	C110.842819,168.892349 130.343048,149.872650 133.537277,123.750397 
	C133.718430,122.268936 134.108261,120.646004 133.713760,119.288635 
	C131.395660,111.312500 135.246811,105.278809 139.444122,99.142242 
	C143.840302,92.714951 147.847961,86.021919 152.099106,79.329048 
	C169.183090,101.482155 171.018707,152.025467 132.815262,182.573059 
	C132.147507,183.185684 131.919022,183.456955 131.690552,183.728210 
	C131.690536,183.728210 131.812714,183.754288 131.498505,183.766632 
	C130.781754,184.180725 130.379211,184.582504 129.976654,184.984268 
	C129.976654,184.984268 129.997391,185.002411 129.721741,185.014038 
	C129.229218,185.300278 129.012360,185.574875 128.795486,185.849472 
	C128.795486,185.849472 128.892471,185.884537 128.587982,185.899506 
	C128.005783,186.200363 127.728065,186.486252 127.450348,186.772125 
	C127.450340,186.772125 127.167221,186.764465 126.809906,186.893005 
	C126.221466,187.281525 125.990349,187.541473 125.759232,187.801437 
	C125.759232,187.801437 125.870750,187.835434 125.557236,187.819702 
	C124.796463,188.176422 124.349213,188.548874 123.901962,188.921326 
	C123.901970,188.921326 123.972931,188.978394 123.663177,188.952301 
	C122.888931,189.278198 122.424431,189.630173 121.959930,189.982147 
	C119.175331,191.248764 116.390724,192.515381 113.011337,193.954926 
	C112.119797,194.354248 111.823051,194.580643 111.526306,194.807037 
	C111.526299,194.807022 111.218063,194.774261 110.745728,194.872696 
	C108.690536,195.583130 107.107689,196.195145 105.524841,196.807129 
	C105.176323,196.848099 104.827812,196.889053 103.844162,197.003403 
	C100.143906,197.755142 97.078781,198.433502 94.013649,199.111847 
	C93.566666,199.075912 93.119682,199.039978 92.340622,199.064835 
z"/>
<path fill="#187D8E" opacity="1.000000" stroke="none" 
	d="
M139.156036,72.170990 
	C127.103676,92.148857 115.302597,111.853455 103.272453,131.417206 
	C101.598579,134.139313 99.161102,136.759888 96.459129,138.424210 
	C72.228035,153.349747 47.870911,168.071136 23.496748,182.762787 
	C22.133919,183.584259 20.294514,183.615036 18.676924,184.013840 
	C18.905947,182.236908 18.598413,180.137421 19.443850,178.731049 
	C33.934132,154.626511 48.502125,130.567673 63.257549,106.624847 
	C64.934990,103.902962 67.509514,101.409233 70.229156,99.705208 
	C94.061523,84.772736 118.002045,70.012138 141.988266,55.327599 
	C143.548874,54.372181 145.750839,54.464397 147.654480,54.069290 
	C147.296188,56.011833 147.368912,58.179741 146.494385,59.852375 
	C144.339539,63.973751 141.749619,67.867653 139.156036,72.170990 
M90.924500,113.668266 
	C86.601295,109.299896 81.860191,108.419403 77.590218,111.191910 
	C73.714951,113.708107 72.149330,118.263763 73.700943,122.508904 
	C75.705070,127.992096 81.321526,130.572296 86.610634,128.439621 
	C92.144302,126.208336 93.915390,120.906418 90.924500,113.668266 
z"/>
<path fill="#1F7E8F" opacity="1.000000" stroke="none" 
	d="
M170.004639,51.926987 
	C168.664291,39.795303 162.174042,33.286034 150.411621,31.928095 
	C148.975784,31.762331 147.608612,31.001886 145.908371,29.442072 
	C150.762436,27.847445 155.550125,25.989382 160.492294,24.744539 
	C164.206268,23.809057 166.050232,21.789219 166.961227,18.182882 
	C168.087372,13.724792 169.662796,9.380196 171.044113,4.986561 
	C171.581680,4.899773 172.119263,4.812985 172.656830,4.726196 
	C173.737961,7.814200 175.293091,10.826061 175.803879,14.005687 
	C176.950211,21.141640 180.785355,24.965067 187.917038,26.150146 
	C191.444382,26.736292 194.797745,28.369535 199.699356,30.025476 
	C193.441727,31.998857 188.541718,33.690872 183.554199,35.065342 
	C180.229736,35.981499 178.123245,37.563313 177.241806,41.149166 
	C175.978470,46.288555 174.161224,51.291786 172.126251,57.807526 
	C171.144547,55.135899 170.622772,53.715961 170.004639,51.926987 
z"/>
<path fill="#DFF5F7" opacity="1.000000" stroke="none" 
	d="
M94.277184,199.364075 
	C97.078781,198.433502 100.143906,197.755142 103.601868,197.112152 
	C100.843376,197.970444 97.692047,198.793365 94.277184,199.364075 
z"/>
<path fill="#D1EDF0" opacity="1.000000" stroke="none" 
	d="
M3.861154,101.104233 
	C3.755078,103.691620 3.383120,106.466866 2.887544,109.618240 
	C3.041041,107.093597 3.318156,104.192848 3.861154,101.104233 
z"/>
<path fill="#DFF5F7" opacity="1.000000" stroke="none" 
	d="
M105.929520,196.871399 
	C107.107689,196.195145 108.690536,195.583130 110.638336,194.984436 
	C109.446922,195.643723 107.890556,196.289688 105.929520,196.871399 
z"/>
<path fill="#D1EDF0" opacity="1.000000" stroke="none" 
	d="
M2.526508,127.168114 
	C2.811707,127.442917 2.911357,127.886040 2.943824,128.667572 
	C2.698080,128.449463 2.519520,127.892952 2.526508,127.168114 
z"/>
<path fill="#DFF5F7" opacity="1.000000" stroke="none" 
	d="
M130.298141,184.975220 
	C130.379211,184.582504 130.781754,184.180725 131.467041,183.712646 
	C131.373062,184.086288 130.996353,184.526230 130.298141,184.975220 
z"/>
<path fill="#DFF5F7" opacity="1.000000" stroke="none" 
	d="
M124.226532,188.932983 
	C124.349213,188.548874 124.796463,188.176422 125.542496,187.763306 
	C125.411224,188.129974 124.981163,188.537308 124.226532,188.932983 
z"/>
<path fill="#DFF5F7" opacity="1.000000" stroke="none" 
	d="
M122.271866,189.982422 
	C122.424431,189.630173 122.888931,189.278198 123.653976,188.907715 
	C123.497627,189.253708 123.040718,189.618210 122.271866,189.982422 
z"/>
<path fill="#DFF5F7" opacity="1.000000" stroke="none" 
	d="
M131.977692,183.708862 
	C131.919022,183.456955 132.147507,183.185684 132.645660,182.855453 
	C132.698502,183.094162 132.481674,183.391846 131.977692,183.708862 
z"/>
<path fill="#DFF5F7" opacity="1.000000" stroke="none" 
	d="
M129.058868,185.810028 
	C129.012360,185.574875 129.229218,185.300278 129.717987,185.001465 
	C129.767365,185.241684 129.544815,185.506134 129.058868,185.810028 
z"/>
<path fill="#DFF5F7" opacity="1.000000" stroke="none" 
	d="
M127.771759,186.752350 
	C127.728065,186.486252 128.005783,186.200363 128.581696,185.848328 
	C128.617661,186.098984 128.355423,186.415771 127.771759,186.752350 
z"/>
<path fill="#DFF5F7" opacity="1.000000" stroke="none" 
	d="
M126.026970,187.781769 
	C125.990349,187.541473 126.221466,187.281525 126.723587,187.005280 
	C126.761292,187.246704 126.528000,187.504395 126.026970,187.781769 
z"/>
<path fill="#DFF5F7" opacity="1.000000" stroke="none" 
	d="
M111.814331,194.816422 
	C111.823051,194.580643 112.119797,194.354248 112.705490,194.140137 
	C112.697075,194.376877 112.399712,194.601349 111.814331,194.816422 
z"/>
<path fill="#D1EDF0" opacity="1.000000" stroke="none" 
	d="
M4.736452,98.061447 
	C4.926595,98.164413 4.954615,98.346359 4.849445,98.770287 
	C4.600529,98.819420 4.461047,98.635483 4.383362,98.428375 
	C4.359653,98.365166 4.505911,98.238205 4.736452,98.061447 
z"/>
<path fill="#F2FAFB" opacity="1.000000" stroke="none" 
	d="
M91.123764,114.000427 
	C93.915390,120.906418 92.144302,126.208336 86.610634,128.439621 
	C81.321526,130.572296 75.705070,127.992096 73.700943,122.508904 
	C72.149330,118.263763 73.714951,113.708107 77.590218,111.191910 
	C81.860191,108.419403 86.601295,109.299896 91.123764,114.000427 
z"/>
</svg>